#N canvas 667 306 450 300 10;
#X obj 228 157 netreceive 3000;
#X obj 228 179 route 0 1;
#X obj 230 227 s audio_on_off;
#X obj 239 22 r audio_on_off;
#X msg 239 86 \; pd dsp \$1;
#X obj 246 52 tgl 15 0 empty empty empty 17 7 0 10 -262144 -1 -1 0
1;
#X connect 0 0 1 0;
#X connect 1 0 2 0;
#X connect 3 0 5 0;
#X connect 5 0 4 0;
