#N canvas -8 -8 1366 685 10;
#X obj 75 103 phasor~;
#X obj 75 125 +~ 0.5;
#X obj 75 147 cos~;
#X obj 75 173 +~ 2;
#X obj 75 195 *~ 2;
#X obj 75 217 vd~ voice;
#X obj 170 221 phasor~;
#X obj 170 265 cos~;
#X obj 170 291 +~ 2;
#X obj 170 313 *~ 2;
#X obj 170 335 vd~ voice;
#X obj 170 243 +~ 0.33;
#X obj 189 403 phasor~;
#X obj 189 447 cos~;
#X obj 189 473 +~ 2;
#X obj 189 495 *~ 2;
#X obj 189 517 vd~ voice;
#X obj 364 221 hsl 128 15 0 5 0 0 empty empty empty -2 -8 0 10 -262144
-1 -1 1778 1;
#X floatatom 382 271 5 0 0 0 - - -, f 5;
#X obj 189 425 +~ 0.66;
#X obj 384 345 hsl 128 15 0 5 0 0 empty empty empty -2 -8 0 10 -262144
-1 -1 6096 1;
#X floatatom 408 420 5 0 0 0 - - -, f 5;
#X obj 67 66 delwrite~ voice 1000;
#X obj 621 125 route 0 1 2;
#X obj 661 237 * 0.005;
#X obj 579 205 * 0.005;
#X obj 48 38 *~ 0.5;
#X obj 47 8 adc~;
#X obj 622 102 netreceive 3001;
#X text 134 103 Sinal repetido com atraso e oscilador de baixa frequência
;
#X text 262 511 Sinal repetido com atraso e oscilador de baixa frequência
Recebe valores do servidor para controlar o rate;
#X text 167 185 Sinal repetido com atraso e oscilador de baixa frequência
Recebe valores do servidor para controlar o depth;
#X obj 575 151 s onoff;
#X obj 48 635 dac~;
#X obj 47 606 *~;
#X obj 104 589 r onoff;
#X connect 0 0 1 0;
#X connect 1 0 2 0;
#X connect 2 0 3 0;
#X connect 3 0 4 0;
#X connect 4 0 5 0;
#X connect 5 0 34 0;
#X connect 6 0 11 0;
#X connect 7 0 8 0;
#X connect 8 0 9 0;
#X connect 9 0 10 0;
#X connect 10 0 34 0;
#X connect 11 0 7 0;
#X connect 12 0 19 0;
#X connect 13 0 14 0;
#X connect 14 0 15 0;
#X connect 15 0 16 0;
#X connect 16 0 34 0;
#X connect 17 0 12 0;
#X connect 17 0 18 0;
#X connect 17 0 6 0;
#X connect 17 0 0 0;
#X connect 19 0 13 0;
#X connect 20 0 14 1;
#X connect 20 0 15 1;
#X connect 20 0 8 1;
#X connect 20 0 9 1;
#X connect 20 0 3 1;
#X connect 20 0 4 1;
#X connect 20 0 21 0;
#X connect 23 0 32 0;
#X connect 23 1 24 0;
#X connect 23 2 25 0;
#X connect 24 0 20 0;
#X connect 25 0 17 0;
#X connect 26 0 22 0;
#X connect 26 0 34 0;
#X connect 27 0 26 0;
#X connect 27 1 26 0;
#X connect 28 0 23 0;
#X connect 34 0 33 0;
#X connect 35 0 34 1;
