#N canvas 438 50 771 521 10;
#X obj 121 141 adc~;
#X obj 120 461 dac~;
#X obj 121 301 clip~ -0.5 0.5;
#X obj 120 398 *~;
#X obj 120 217 *~;
#X obj 138 176 r level;
#X obj 138 351 r onoff;
#X obj 431 260 route 0 1;
#X obj 408 299 s onoff;
#X obj 477 301 s level;
#X obj 431 225 netreceive 3002;
#X text 40 486 Conversor Digital Analógico;
#X text 44 117 Conversor Analógico Digital;
#X text 155 219 Multiplicação Amplitude;
#X text 232 302 Ceifador;
#X text 196 176 Recebe os valores enviados pelo servidor Python;
#X text 195 350 Varia entre 0 e 1 para ligar e desligar o efeito;
#X connect 0 0 4 0;
#X connect 2 0 3 0;
#X connect 3 0 1 0;
#X connect 3 0 1 1;
#X connect 4 0 2 0;
#X connect 5 0 4 1;
#X connect 6 0 3 1;
#X connect 7 0 8 0;
#X connect 7 1 9 0;
#X connect 10 0 7 0;
